<svg width="20" height="20" viewBox="0 0 20 20" fill="none" xmlns="http://www.w3.org/2000/svg">
<g clip-path="url(#clip0_78_1654)">
<path d="M15.4167 0.833008H4.58333C3.36816 0.834331 2.20314 1.31764 1.34389 2.1769C0.484634 3.03615 0.00132347 4.20117 0 5.41634L0 14.583C0.00132347 15.7982 0.484634 16.9632 1.34389 17.8225C2.20314 18.6817 3.36816 19.165 4.58333 19.1663H15.4167C16.6318 19.165 17.7969 18.6817 18.6561 17.8225C19.5154 16.9632 19.9987 15.7982 20 14.583V5.41634C19.9987 4.20117 19.5154 3.03615 18.6561 2.1769C17.7969 1.31764 16.6318 0.834331 15.4167 0.833008V0.833008ZM15.4167 3.33301C15.9221 3.33469 16.4092 3.5218 16.7858 3.85884L11.3692 9.27551C11.0013 9.6269 10.5121 9.82297 10.0033 9.82297C9.49458 9.82297 9.0054 9.6269 8.6375 9.27551L3.22083 3.85884C3.59571 3.52332 4.08025 3.33632 4.58333 3.33301H15.4167ZM15.4167 16.6663H4.58333C4.0308 16.6663 3.50089 16.4468 3.11019 16.0561C2.71949 15.6654 2.5 15.1355 2.5 14.583V6.68051L6.86583 11.0463C7.2773 11.458 7.76584 11.7845 8.30353 12.0073C8.84123 12.2301 9.41756 12.3448 9.99958 12.3448C10.5816 12.3448 11.1579 12.2301 11.6956 12.0073C12.2333 11.7845 12.7219 11.458 13.1333 11.0463L17.5 6.68051V14.583C17.5 15.1355 17.2805 15.6654 16.8898 16.0561C16.4991 16.4468 15.9692 16.6663 15.4167 16.6663Z" fill="#374957"/>
</g>
<defs>
<clipPath id="clip0_78_1654">
<rect width="20" height="20" fill="white"/>
</clipPath>
</defs>
</svg>
