<svg width="20" height="20" viewBox="0 0 20 20" fill="none" xmlns="http://www.w3.org/2000/svg">
<g clip-path="url(#clip0_78_1649)">
<path d="M14.5833 19.9997C7.79249 20.1913 -4.23085 8.15384 1.55249 1.61467C1.57332 1.59467 2.46165 0.819673 2.46165 0.819673C3.01159 0.288039 3.74836 -0.00628885 4.51323 0.000101938C5.2781 0.00649273 6.00985 0.31309 6.55082 0.853839L8.34499 2.78634C8.87299 3.33836 9.16497 4.07449 9.1589 4.83835C9.15283 5.60221 8.84919 6.33361 8.31249 6.87717L7.98832 7.20551C8.95184 9.33789 10.6561 11.0484 12.785 12.0197L13.1267 11.6863C13.682 11.1569 14.4198 10.8615 15.1871 10.8615C15.9543 10.8615 16.6922 11.1569 17.2475 11.6863L19.1125 13.4163C19.6658 13.9552 19.9834 14.691 19.996 15.4633C20.0087 16.2355 19.7153 16.9813 19.18 17.538C19.18 17.538 18.405 18.4272 18.385 18.448C17.8853 18.945 17.292 19.338 16.6395 19.6044C15.9869 19.8707 15.2881 20.0051 14.5833 19.9997ZM3.29165 3.41634C-0.758346 8.43051 12.2025 20.6438 16.5875 16.708C16.5875 16.708 17.3575 15.8255 17.3783 15.8047C17.4188 15.7671 17.451 15.7216 17.4731 15.6709C17.4951 15.6203 17.5065 15.5657 17.5065 15.5105C17.5065 15.4553 17.4951 15.4007 17.4731 15.3501C17.451 15.2995 17.4188 15.2539 17.3783 15.2163L15.5133 13.488C15.2633 13.2797 15.1233 13.2772 14.89 13.4547L13.9442 14.3855C13.7734 14.5535 13.558 14.6689 13.3235 14.7179C13.089 14.767 12.8454 14.7476 12.6217 14.6622C10.9589 14.0437 9.44862 13.075 8.19312 11.8217C6.93762 10.5683 5.96629 9.05967 5.34499 7.39801C5.25428 7.17239 5.23136 6.92521 5.27902 6.68675C5.32668 6.4483 5.44286 6.22893 5.61332 6.05551L6.53749 5.11634C6.57961 5.07921 6.61348 5.03366 6.6369 4.98263C6.66033 4.93161 6.6728 4.87623 6.67351 4.82009C6.67422 4.76394 6.66314 4.70827 6.64101 4.65667C6.61887 4.60507 6.58616 4.55868 6.54499 4.52051L4.74999 2.58801C4.66948 2.52379 4.56805 2.49166 4.46526 2.49782C4.36246 2.50397 4.26559 2.54798 4.19332 2.62134C4.17415 2.64217 3.29165 3.41634 3.29165 3.41634ZM19.7083 9.11051C20.062 7.88725 20.0812 6.59151 19.7637 5.35835C19.4463 4.12518 18.8039 2.99972 17.9036 2.09927C17.0032 1.19882 15.8778 0.556345 14.6447 0.238797C13.4115 -0.0787506 12.1158 -0.0597428 10.8925 0.293839C10.7352 0.340787 10.5886 0.41826 10.4613 0.521834C10.3339 0.625409 10.2282 0.753058 10.1501 0.897492C10.0721 1.04193 10.0233 1.20032 10.0064 1.36362C9.98962 1.52692 10.0051 1.69194 10.0521 1.84926C10.099 2.00657 10.1765 2.15309 10.2801 2.28047C10.3836 2.40784 10.5113 2.51356 10.6557 2.5916C10.8002 2.66964 10.9585 2.71847 11.1219 2.7353C11.2852 2.75212 11.4502 2.73662 11.6075 2.68967C12.3985 2.46352 13.2357 2.45307 14.0322 2.65942C14.8286 2.86577 15.5554 3.28139 16.1371 3.86321C16.7188 4.44502 17.1344 5.17185 17.3406 5.96834C17.5468 6.76483 17.5363 7.60198 17.31 8.39301C17.2631 8.55037 17.2477 8.71543 17.2646 8.87876C17.2816 9.04208 17.3305 9.20047 17.4087 9.34488C17.4868 9.48928 17.5927 9.61687 17.7202 9.72036C17.8476 9.82384 17.9943 9.9012 18.1517 9.94801C18.2677 9.98223 18.3881 9.99963 18.5092 9.99967C18.7782 9.99938 19.04 9.91229 19.2556 9.75135C19.4711 9.5904 19.6291 9.3642 19.7058 9.10634L19.7083 9.11051ZM15.0533 9.22134C15.1695 9.10526 15.2616 8.96742 15.3245 8.81571C15.3874 8.664 15.4197 8.50139 15.4197 8.33717C15.4197 8.17295 15.3874 8.01034 15.3245 7.85863C15.2616 7.70692 15.1695 7.56909 15.0533 7.45301L14.1667 6.56551V5.41634C14.1667 5.08482 14.035 4.76688 13.8005 4.53246C13.5661 4.29804 13.2482 4.16634 12.9167 4.16634C12.5851 4.16634 12.2672 4.29804 12.0328 4.53246C11.7984 4.76688 11.6667 5.08482 11.6667 5.41634V7.08301C11.6666 7.24719 11.6988 7.40977 11.7616 7.56148C11.8244 7.71319 11.9164 7.85104 12.0325 7.96717L13.2825 9.21717C13.3986 9.33333 13.5364 9.42548 13.6881 9.48835C13.8398 9.55121 14.0024 9.58357 14.1667 9.58357C14.3309 9.58357 14.4935 9.55121 14.6452 9.48835C14.7969 9.42548 14.9347 9.33333 15.0508 9.21717L15.0533 9.22134Z" fill="#374957"/>
</g>
<defs>
<clipPath id="clip0_78_1649">
<rect width="20" height="20" fill="white"/>
</clipPath>
</defs>
</svg>
