<svg width="14" height="14" viewBox="0 0 14 14" fill="none" xmlns="http://www.w3.org/2000/svg">
<path d="M13.8086 12.1133C13.9362 12.2409 14 12.3958 14 12.5781C14 12.7604 13.9362 12.9154 13.8086 13.043L13.043 13.8086C12.9154 13.9362 12.7604 14 12.5781 14C12.3959 14 12.2409 13.9362 12.1133 13.8086L9.37893 11.0742C9.25133 10.9466 9.18752 10.7917 9.18752 10.6094V10.1719C8.16669 10.974 7.00002 11.375 5.68752 11.375C4.11982 11.375 2.77997 10.819 1.66799 9.70703C0.556014 8.59505 2.43187e-05 7.25521 2.43187e-05 5.6875C2.43187e-05 4.11979 0.556014 2.77995 1.66799 1.66797C2.77997 0.55599 4.11982 0 5.68752 0C7.25523 0 8.59508 0.55599 9.70706 1.66797C10.819 2.77995 11.375 4.11979 11.375 5.6875C11.375 7 10.974 8.16667 10.1719 9.1875H10.6094C10.7917 9.1875 10.9466 9.2513 11.0742 9.37891L13.8086 12.1133ZM3.19924 8.17578C3.89195 8.85026 4.72138 9.1875 5.68752 9.1875C6.65367 9.1875 7.47398 8.85026 8.14846 8.17578C8.84117 7.48307 9.18752 6.65365 9.18752 5.6875C9.18752 4.72135 8.84117 3.90104 8.14846 3.22656C7.47398 2.53385 6.65367 2.1875 5.68752 2.1875C4.72138 2.1875 3.89195 2.53385 3.19924 3.22656C2.52476 3.90104 2.18752 4.72135 2.18752 5.6875C2.18752 6.65365 2.52476 7.48307 3.19924 8.17578Z" fill="black"/>
</svg>
